<svg width="72" height="72" viewBox="0 0 72 72" fill="none" xmlns="http://www.w3.org/2000/svg">
<path d="M39.3012 37.5462C38.9239 37.9288 38.4744 38.2325 37.9787 38.4399C37.4831 38.6472 36.9511 38.754 36.4139 38.754C35.8766 38.754 35.3447 38.6472 34.849 38.4399C34.3533 38.2325 33.9038 37.9288 33.5265 37.5462L19.1331 22.9474C17.6254 21.4973 16.6251 19.6 16.2803 17.5368C15.9356 15.4735 16.2647 13.3541 17.219 11.4926V11.4926C17.9761 10.0756 19.0515 8.85341 20.3608 7.92229C21.67 6.99117 23.1775 6.37645 24.7645 6.12649C26.3515 5.87652 27.9749 5.99812 29.507 6.48172C31.0391 6.96531 32.4382 7.79773 33.5941 8.9135L36.4139 11.6549L39.2363 8.9135C40.3923 7.79773 41.7913 6.96531 43.3234 6.48172C44.8555 5.99812 46.4789 5.87652 48.0659 6.12649C49.653 6.37645 51.1604 6.99117 52.4697 7.92229C53.7789 8.85341 54.8544 10.0756 55.6114 11.4926V11.4926C56.568 13.3556 56.8981 15.4775 56.5528 17.543C56.2075 19.6086 55.2051 21.5076 53.6946 22.9582L39.3012 37.5462Z" stroke="#EB4A00" stroke-width="2" stroke-linecap="round" stroke-linejoin="round"></path>
<path d="M14.1105 66.8304L8.66565 60.3934C6.94009 58.2363 6.00001 55.5562 6 52.7938V38.8113C6 37.7358 6.42725 36.7044 7.18775 35.9439C7.94826 35.1834 8.97973 34.7561 10.0552 34.7561V34.7561C11.1308 34.7561 12.1622 35.1834 12.9227 35.9439C13.6832 36.7044 14.1105 37.7358 14.1105 38.8113V48.9495" stroke="#523F3C" stroke-width="2" stroke-linecap="round" stroke-linejoin="round"></path>
<path d="M26.2757 66.8306V58.7202C26.2768 56.3144 25.5646 53.9624 24.2292 51.9614L21.1418 47.3384C20.8773 46.9003 20.5266 46.5203 20.111 46.2215C19.6954 45.9227 19.2235 45.7114 18.7239 45.6002C18.2243 45.489 17.7073 45.4803 17.2042 45.5746C16.7011 45.6689 16.2224 45.8643 15.797 46.1489V46.1489C15.0335 46.6608 14.4823 47.4332 14.2465 48.3217C14.0107 49.2102 14.1063 50.1542 14.5155 50.9773L18.1707 57.0602" stroke="#523F3C" stroke-width="2" stroke-linecap="round" stroke-linejoin="round"></path>
<path d="M58.7195 66.8304L64.1643 60.3934C65.8899 58.2363 66.83 55.5562 66.83 52.7938V38.8113C66.83 37.7358 66.4027 36.7044 65.6422 35.9439C64.8817 35.1834 63.8502 34.7561 62.7747 34.7561C61.6992 34.7561 60.6677 35.1834 59.9072 35.9439C59.1467 36.7044 58.7195 37.7358 58.7195 38.8113V48.9495" stroke="#523F3C" stroke-width="2" stroke-linecap="round" stroke-linejoin="round"></path>
<path d="M46.5532 66.8304V58.7199C46.5521 56.3142 47.2643 53.9622 48.5998 51.9611L51.6872 47.3328C51.9506 46.8935 52.3004 46.5123 52.7155 46.2121C53.1306 45.912 53.6023 45.6993 54.102 45.5868C54.6017 45.4744 55.119 45.4645 55.6226 45.5578C56.1263 45.6511 56.6057 45.8457 57.032 46.1297V46.1297C57.7997 46.6413 58.3542 47.4156 58.5912 48.3073C58.8282 49.1989 58.7313 50.1464 58.3188 50.9717L54.6637 57.0545" stroke="#523F3C" stroke-width="2" stroke-linecap="round" stroke-linejoin="round"></path>
</svg>
