<svg width="72" height="72" viewBox="0 0 72 72" fill="none" xmlns="http://www.w3.org/2000/svg">
<path d="M62.1503 53.1038C62.1503 58.1025 58.2608 62.1511 53.4585 62.1511C48.6561 62.1511 44.7666 58.1025 44.7666 53.1038C44.7666 47.1548 51.99 36.7441 53.4585 36.7441C54.9269 36.7441 62.1503 47.1548 62.1503 53.1038Z" stroke="#523F3C" stroke-width="2" stroke-miterlimit="23.3333" stroke-linecap="round" stroke-linejoin="round"></path>
<path d="M40.7551 24.7092L16.6853 47.4418" stroke="#523F3C" stroke-width="2" stroke-miterlimit="23.3333" stroke-linecap="round" stroke-linejoin="round"></path>
<path d="M39.825 25.0342L15.4034 49.3985L14.684 50.1163C12.4457 47.8832 10.9668 44.9723 10.4072 41.8619C6.49015 20.4884 31.7111 10.7586 48.3785 10.1206C49.9373 10.0807 53.5346 9.60219 54.8136 10.8782C56.2126 12.2739 55.4931 22.2429 51.3363 32.7702" stroke="#523F3C" stroke-width="2" stroke-miterlimit="23.3333" stroke-linecap="round" stroke-linejoin="round"></path>
<path d="M62.1503 53.1038C62.1503 58.1025 58.2608 62.1511 53.4585 62.1511C48.6561 62.1511 44.7666 58.1025 44.7666 53.1038C44.7666 47.1548 51.99 36.7441 53.4585 36.7441C54.9269 36.7441 62.1503 47.1548 62.1503 53.1038Z" stroke="#EB4A00" stroke-width="2" stroke-miterlimit="23.3333" stroke-linecap="round" stroke-linejoin="round"></path>
<path d="M15.3481 50.1162C25.6802 57.3138 35.0172 53.183 39.4179 50.3666" stroke="#523F3C" stroke-width="2" stroke-miterlimit="23.3333" stroke-linecap="round" stroke-linejoin="round"></path>
<path d="M22.034 42.093L19.3596 30.0581" stroke="#523F3C" stroke-width="2" stroke-miterlimit="23.3333" stroke-linecap="round" stroke-linejoin="round"></path>
<path d="M28.7203 35.407L26.0459 26.0465" stroke="#523F3C" stroke-width="2" stroke-miterlimit="23.3333" stroke-linecap="round" stroke-linejoin="round"></path>
<path d="M35.4063 28.721L34.0691 22.0349" stroke="#523F3C" stroke-width="2" stroke-miterlimit="23.3333" stroke-linecap="round" stroke-linejoin="round"></path>
</svg>
