<svg width="72" height="72" viewBox="0 0 72 72" fill="none" xmlns="http://www.w3.org/2000/svg">
<path d="M26.2783 64.4387C14.7431 60.4172 6.43555 49.4111 6.43555 36.4471C6.43555 20.0967 19.717 6.81525 36.0674 6.81525C36.967 6.81525 37.8136 6.86816 38.6602 6.92107" stroke="#523F3C" stroke-width="2" stroke-miterlimit="10" stroke-linecap="round" stroke-linejoin="round"></path>
<path d="M45.4874 8.40277C57.2343 12.3184 65.7005 23.4304 65.7005 36.5002C65.7005 52.8506 52.4191 66.1321 36.0686 66.1321C35.0104 66.1321 33.8992 66.0791 32.8938 65.9733" stroke="#EB4A00" stroke-width="2" stroke-miterlimit="10" stroke-linecap="round" stroke-linejoin="round"></path>
<path d="M30.9355 2L38.661 6.92101L31.5176 12.7945" stroke="#523F3C" stroke-width="2" stroke-miterlimit="10" stroke-linecap="round" stroke-linejoin="round"></path>
<path d="M40.5663 70.9999L32.8938 65.9202L40.143 60.1525" stroke="#EB4A00" stroke-width="2" stroke-miterlimit="10" stroke-linecap="round" stroke-linejoin="round"></path>
<path d="M47.1957 26.5793C41.0275 26.5793 36.0652 31.5881 36.0652 37.7099H43.9029C50.0711 37.7099 55.0334 32.7011 55.0334 26.5793H47.1957Z" stroke="#523F3C" stroke-width="2" stroke-miterlimit="10" stroke-linecap="round" stroke-linejoin="round"></path>
<path d="M24.9356 26.5798C31.1038 26.5798 36.0661 31.5885 36.0661 37.7103H28.2284C22.0602 37.7103 17.0979 32.7016 17.0979 26.5798H24.9356Z" stroke="#523F3C" stroke-width="2" stroke-miterlimit="10" stroke-linecap="round" stroke-linejoin="round"></path>
<path d="M36.0652 37.71V50" stroke="#523F3C" stroke-width="2" stroke-miterlimit="10" stroke-linecap="round" stroke-linejoin="round"></path>
</svg>
