<svg width="72" height="72" viewBox="0 0 72 72" fill="none" xmlns="http://www.w3.org/2000/svg">
<path d="M36.5329 65C30.8948 65.0065 25.3814 63.3405 20.6902 60.2129C15.9991 57.0852 12.3411 52.6364 10.1789 47.4293C8.01676 42.2222 7.44767 36.4907 8.54362 30.9601C9.63958 25.4295 12.3513 20.3482 16.3358 16.3591C20.3203 12.37 25.3985 9.6524 30.9278 8.55005C36.4572 7.4477 42.1892 8.01016 47.3989 10.1663C52.6085 12.3224 57.0615 15.9753 60.1946 20.6628C63.3277 25.3503 65 30.8618 65 36.5" stroke="#523F3C" stroke-width="2" stroke-linecap="round" stroke-linejoin="round"></path>
<path d="M26.9924 38.3748L25.8195 33.678C25.6139 32.856 25.1395 32.1263 24.4716 31.6049C23.8038 31.0835 22.9808 30.8002 22.1335 30.8001H8.57258C7.52474 35.9475 7.9204 41.2844 9.71585 46.221C11.5113 51.1575 14.6366 55.5016 18.7464 58.7732L21.3 46.0001H25.0418" stroke="#523F3C" stroke-width="2" stroke-linecap="round" stroke-linejoin="round"></path>
<path d="M59.2623 19.4H48.9668C48.1195 19.4001 47.2965 19.6834 46.6287 20.2048C45.9608 20.7262 45.4864 21.4559 45.2808 22.2779L44.6069 24.9759" stroke="#523F3C" stroke-width="2" stroke-linecap="round" stroke-linejoin="round"></path>
<path d="M32.7351 45.9999C32.7351 49.5273 34.1364 52.9102 36.6306 55.4045C39.1248 57.8987 42.5077 59.2999 46.0351 59.2999C49.5625 59.2999 52.9454 57.8987 55.4396 55.4045C57.9338 52.9102 59.3351 49.5273 59.3351 45.9999C59.3351 42.4726 57.9338 39.0897 55.4396 36.5954C52.9454 34.1012 49.5625 32.7 46.0351 32.7C42.5077 32.7 39.1248 34.1012 36.6306 36.5954C34.1364 39.0897 32.7351 42.4726 32.7351 45.9999V45.9999Z" stroke="#EB4A00" stroke-width="2" stroke-linecap="round" stroke-linejoin="round"></path>
<path d="M64.9988 65.0001L55.438 55.4038" stroke="#EB4A00" stroke-width="2" stroke-linecap="round" stroke-linejoin="round"></path>
</svg>
