<svg width="72" height="72" viewBox="0 0 72 72" fill="none" xmlns="http://www.w3.org/2000/svg">
<path d="M40.8714 32.1065C43.519 24.3931 41.6222 15.805 35.8924 10C30.1626 15.805 28.2264 24.4329 30.9134 32.186" stroke="#523F3C" stroke-width="2" stroke-miterlimit="23.3333" stroke-linecap="round" stroke-linejoin="round"></path>
<path d="M55.6045 26.0233C44.6577 26.0639 35.8428 34.9282 35.8838 45.7442C46.8306 45.7035 55.6455 36.8799 55.6045 26.0233Z" stroke="#EB4A00" stroke-width="2" stroke-miterlimit="23.3333" stroke-linecap="round" stroke-linejoin="round"></path>
<path d="M16.163 26.0233C27.1098 26.0639 35.9246 34.8875 35.8836 45.7442C24.9368 45.7035 16.122 36.8799 16.163 26.0233Z" stroke="#523F3C" stroke-width="2" stroke-miterlimit="23.3333" stroke-linecap="round" stroke-linejoin="round"></path>
<path d="M35.8837 54.3721V45.7442" stroke="#523F3C" stroke-width="2" stroke-miterlimit="23.3333" stroke-linecap="round" stroke-linejoin="round"></path>
<path d="M42.0465 54.3721C49.0277 55.4558 55.8117 58.3317 61.7674 63" stroke="#523F3C" stroke-width="2" stroke-miterlimit="23.3333" stroke-linecap="round" stroke-linejoin="round"></path>
<path d="M10 63C17.6546 57.248 26.7692 54.3721 35.8837 54.3721" stroke="#523F3C" stroke-width="2" stroke-miterlimit="23.3333" stroke-linecap="round" stroke-linejoin="round"></path>
</svg>
